<?xml version="1.0" encoding="utf-8"?>
<!-- Generator: Adobe Illustrator 18.1.1, SVG Export Plug-In . SVG Version: 6.00 Build 0)  -->
<svg version="1.1" id="Layer_1" xmlns="http://www.w3.org/2000/svg" xmlns:xlink="http://www.w3.org/1999/xlink" x="0px" y="0px"
	 viewBox="0 0 255 185" enable-background="new 0 0 255 185" xml:space="preserve">
<g>
	<g>
		<path fill="#40BFB3" d="M171.5,165.8V87.4L186,73.6v92.3H171.5z"/>
	</g>
</g>
<path fill="#1D6EAF" d="M152.8,16.1l-2.8,2.8l-20.4,20.4L68.5,28.5c-1.6-0.3-3.3-0.4-4.9-0.4c-6.7,0-12.5,2.6-16.4,7.2
	c-4.1,4.9-5.7,11.6-4.4,18.9l10.7,61.1L35,133.8l-21.7,21.7c5.6,5.6,14.7,5.6,20.3,0l11.6-11.6c3.9,2.2,8.4,3.5,13.2,3.5h78.4
	c4.8,0,9.3-1.3,13.2-3.5v21.9h13.5v-43c0.1-0.7,0.1-1.5,0.1-2.2v-39l70.6-65.6H152.8z M57.2,43.6c1.8-2.1,4.5-2.6,6.4-2.6
	c0.8,0,1.7,0.1,2.6,0.2l51.7,9l-53.3,53.3l-9-51.7C55,48.5,55.6,45.5,57.2,43.6z M149.9,109.5c0,13.3-10.8,24.1-24.1,24.1l-70.3,0
	l94.4-94.4V109.5z M163.8,65.9V27.1h33.1c4,0,6,4.8,3.2,7.7L163.8,65.9z"/>
<circle fill="#40BFB3" cx="176.1" cy="39.9" r="6.8"/>
</svg>
