<?xml version="1.0" encoding="utf-8"?>
<!-- Generator: Adobe Illustrator 18.1.1, SVG Export Plug-In . SVG Version: 6.00 Build 0)  -->
<svg version="1.1" id="Layer_1" xmlns="http://www.w3.org/2000/svg" xmlns:xlink="http://www.w3.org/1999/xlink" x="0px" y="0px"
	 viewBox="0 0 102.8 63.3" enable-background="new 0 0 102.8 63.3" xml:space="preserve">
<path fill="#1C6DAE" d="M28.7,57.8c-6.4,0-12.7-2.1-17.4-6.4c-6.6-5.9-9.5-13.2-8.8-22.1c0.4-5.2,2.5-10.1,5.8-14.1
	c5.4-6.3,12.1-9.4,20-9.4h7.8c3.2,0,5.8,2.6,5.8,5.8V52c0,3.2-2.6,5.8-5.8,5.8L28.7,57.8z M34.1,19.5c0-3.2-2.6-5.8-5.8-5.8h0
	c-6,0-11,2.6-14.9,7.8c-1.5,2-2.5,4.4-2.9,6.9c-1,6.5,0.7,11.9,5,16.2c3.6,3.6,7.8,5.3,12.8,5.3h0c3.2,0,5.8-2.6,5.8-5.8V19.5z"/>
<path fill="#40BEB3" d="M56.3,7.2l28.1,44.5c1.7,2.7-0.2,6.1-3.4,6.1h0c-1.4,0-2.6-0.7-3.4-1.9l-5.4-8.5c-0.7-1.2-2-1.9-3.4-1.9
	H57.4c-2.2,0-4,1.8-4,4v4.3c0,2.2-1.8,4-4,4h0c-2.2,0-4-1.8-4-4V9.3c0-2.2,1.8-4,4-4H53C54.3,5.3,55.6,6,56.3,7.2z M53.4,31.1v2.5
	c0,2.2,1.8,4,4,4h1.6c3.1,0,5-3.5,3.4-6.1L60.7,29C58.6,25.6,53.4,27.1,53.4,31.1z"/>
<g>
	<g>
		<path fill="#1C6DAE" d="M96.4,57.8L96.4,57.8c-1.2,0-2.2-0.6-2.8-1.6L64.4,10.3c-1.4-2.2,0.2-5.2,2.8-5.2h0c1.2,0,2.2,0.6,2.8,1.6
			l29.2,45.9C100.7,54.8,99.1,57.8,96.4,57.8z"/>
	</g>
</g>
<circle fill="#1C6DAE" cx="24.4" cy="29.8" r="5.4"/>
</svg>
