<?xml version="1.0" encoding="utf-8"?>
<!-- Generator: Adobe Illustrator 18.1.1, SVG Export Plug-In . SVG Version: 6.00 Build 0)  -->
<svg version="1.1" id="Capa_1" xmlns="http://www.w3.org/2000/svg" xmlns:xlink="http://www.w3.org/1999/xlink" x="0px" y="0px"
	 viewBox="0 0 612 792" enable-background="new 0 0 612 792" xml:space="preserve">
<path fill="#FFD028" d="M227.7,540.1c4.2,2.6,14.1,8,24.6,7.7c14-0.3,29.4-5,30.4-17.2c2.2-27.7,54.8-87.5,63.1-172.9
	c0,0-35.9-10.5-80.7,14.1c-37,20.5-54.6,58.8-59,78.7c0,0,4.8,15.3,1.4,25.6C200.9,496.5,206,527.9,227.7,540.1z"/>
<path fill="#4C626F" d="M223.1,547.8c-0.1,0,0.4,8.1-5.8,12.6c-8.8,6.4-9,15-7.4,18.3c0,0,6.3-10.5,12.1-12.2c0,0-3.4,7.2-2.4,11.7
	c0,0,6.1-11.1,10.5-14.4c0,0,5.2-4.3,5-10.2C235.1,553.6,225.3,550.5,223.1,547.8z"/>
<path fill="#FFD028" d="M454.5,444.6c-1-0.9-5-3.3-10.2,2.4c0,0-31.8,45-67,65.4c-21.9,12.7-52.4,28.4-48.4,35.4
	c5.6,10,21.8,17,73.6,2.8c29.2-10.5,48.7-31.4,48.7-31.4C470.6,492.2,456.4,448.4,454.5,444.6z"/>
<path fill="#4C626F" d="M408.5,560.8c0,0-6.8,41-56.8,52.7c-39.1,9.1-76.5-6.7-76.5-0.8c0,7.5,41.3,20.3,73.1,16.8
	c30-4.3,82.2-7.3,102.9-102C436.9,550.8,408.5,560.8,408.5,560.8z"/>
<path fill="#4C626F" d="M255.7,557c0,0,2.5,13.8-8.5,18.5c-11,4.7-13.7,13.5-12.8,17.5c0,0,9.6-9.5,16.1-9.6c0,0-5.6,6.7-5.8,11.7
	c0,0,9.5-10.1,15.1-12.4c5.7-2.4,15.3-15.7,15.4-32.5C275.2,550.2,262.5,557.1,255.7,557z"/>
<path fill="#4C626F" d="M335.7,576.5c-22.4,0.9-24.6,17.3-22.9,16.9c1.6-0.3,7.1-7.7,19.7-7.4c0,0-12.1,3.9-10.9,12.3
	c0,0,14.9-7.7,26.7-6.9c12.6,0.9,29.2-15.9,34.7-26.3c0,0-18.2,4.1-36.6,1.4C346.2,566.4,351,574.8,335.7,576.5z"/>
<path fill="#4C626F" d="M322.3,554.9c-0.9,0.5-2,0.8-3.2,0.9c-10.8,1.6-14.9,9.1-15,12.9c0,0,8.8-6.2,14.6-5c0,0-5.4,3.9-5.9,8.9
	c0,0,3.1-3.1,7.6-4.5c3-0.9,5.7-1.8,8.1-2.8c0,0,4-1.3,5.3-2.8c-1.8-0.4-4.8-1.6-6.5-3.1C324.8,557.3,324,556.1,322.3,554.9z"/>
<g>
	<path fill="#4C626F" d="M213.8,541.4c-18.4-13.2-19.9-44.9-14.3-64.1c0,0,2.2-8.8,1.2-15.1c3-25.2-18.6-21.4-32.6-37.3
		c-5.7-6.5-2.8,7,0.4,19.1c-2.4-1.7-4.7-3.5-6.9-5.8c-7.6-7.9-2.3,14.2,1.4,24.7c2.2,6.3,8.2,16.1,16.6,16.4
		c-3.7,4.3-8.7,7.1-15.5,13.8c-3.3,2.8-6.2,6.2-8.5,10.1c-1.2,2-2.3,4.1-3,6.2c-3.5,8.9-6.5,14.3-9.8,24c-1.2,3.5,1.6,6.5,0.9,9
		c-2.5,9.8-5.9,17.4-13,22.7c0,0-10.2,5.8,0.9,11c0,0,5.8,4.7,11.5,2.8c0,0,3.6,4.1,15.9-6.2c2.9-2.5,5.5-4.7,7.9-6.8
		c3.1-2.1,10.1-8,13.6-8.8C208,550.6,213.8,541.4,213.8,541.4z M177.5,528.5c-2.9,2.9-7.7,2.9-10.5,0c-2.9-2.9-2.9-7.7,0-10.5
		c2.9-2.9,7.7-2.9,10.5,0C180.3,520.9,180.3,525.6,177.5,528.5z"/>
</g>
<path fill="#4C626F" d="M292.4,530.2c1.6-0.3,2.9-0.7,4.5-0.9c0,0,1-0.3,2.8-0.4c1.7-4.2,3.9-8.2,6.3-12l1.9-2.8l0.6-0.9
	c0.2-0.3,0.4-0.5,0.6-0.7c0.4-0.5,0.7-0.9,1.1-1.4c22.6-27.3,29.4-35.5,37.4-53.5c8-17.9,33.9-87.4,33.9-87.4
	c-8.5-4.1-18.3-8-28.7-10.9c-5.1,77.4-52.6,148.6-56,162.2C295.8,525,294.5,527.9,292.4,530.2z"/>
<path fill="#4C626F" d="M359.4,456.1c-8.9,15.7-18.8,30.9-30.5,44.6c-2.8,3.4-6,6.7-9.2,10l-4.7,4.7c-0.4,0.4-0.8,0.8-1.1,1.1
	c-0.2,0.2-0.4,0.4-0.5,0.5l-0.4,0.5l-1.8,2.6c-2,2.9-3.9,6-5.4,9.2c2,0.5,4.3,1.5,6.6,3.1c0.3-1.2,0.9-2.2,1.4-3.3
	c0.6-1.1,1.3-2.2,2-3.1c0.7-0.9,1.4-1.9,2.3-2.8c3.3-3.5,7.1-6.1,10.9-8.5c3.5-2.2,6.9-4.9,10.1-7.7c3.2-2.8,6.3-5.8,9.3-8.9
	c6-6.1,11.7-12.5,17.2-19.2c5.4-6.6,10.4-13.6,15.3-20.7c2.4-3.5,4.7-7.1,6.8-10.8c2.2-3.6,4.3-7.3,6.2-11c0.9-1.8,1.9-3.7,2.8-5.6
	c0.9-1.8,2-4,3-6c2.2-4.1,4.6-8.2,7.3-12.1c2.7-3.9,5.8-7.7,9.4-11.2c0.9-0.9,1.8-1.7,2.8-2.6c0.7-0.5,1.3-1.1,2-1.6
	c-7.4-6.9-14.3-12.3-24.8-19.4l-13.4,29.4c-3.5,8.3-7,16.6-10.9,24.7C368,440.3,363.9,448.3,359.4,456.1z"/>
<path fill="#4C626F" d="M413.7,433.3c-2.1,3.2-4.6,7.3-7.1,11c-5.1,7.5-10.6,14.5-16.4,21.2c-2.8,3.4-5.8,6.7-8.8,10
	c-3,3.2-6.1,6.4-9.2,9.6c-6.2,6.3-12.6,12.3-19.3,18.1c-3.3,2.8-6.8,5.7-10.3,8.4c-3.5,2.7-7.1,5.3-10.9,7.7c-1.8,1-3.5,2.3-5.1,3.5
	c-1.6,1.3-3.1,2.7-4.4,4.2c-1.3,1.5-2.4,3.1-3.1,4.7c-0.3,0.8-0.6,1.6-0.7,2.4c0,0.4,0,0.8,0,1.1c0,0.2,0.1,0.3,0.1,0.5
	c0.1,1.1,1.8,5.6,1.6,5.5c0.3-1.1-0.6-2.6,3.1-7.9c6.8-9.3,44.8-21.6,81.1-57.6c16.8-16.6,30.1-29.1,36-35.6c6-6.6,10.6-4,10.6-4
	s-5-10.7-16.6-24.6c-0.3,0.3-0.7,0.5-1,0.7c-1.4,0.9-2.8,2.2-4.3,3.3c-2.8,2.4-5.5,5.2-8.1,8.1C418.4,426.7,416,429.9,413.7,433.3z"
	/>
</svg>
